<svg xmlns="http://www.w3.org/2000/svg" xmlns:cc="http://web.resource.org/cc/" xmlns:svg="http://www.w3.org/2000/svg" xmlns:xlink="http://www.w3.org/1999/xlink" id="svg2160" width="256" height="256" version="1.0"><metadata id="metadata33"/><defs id="defs2162"><linearGradient id="linearGradient3528"><stop id="stop3530" offset="0" stop-color="#ffd400" stop-opacity="1"/><stop id="stop3532" offset="1" stop-color="#ffd400" stop-opacity="0"/></linearGradient><linearGradient id="linearGradient3516"><stop id="stop3518" offset="0" stop-color="#fff" stop-opacity="1"/><stop id="stop3520" offset="1" stop-color="#fff" stop-opacity="0"/></linearGradient><linearGradient id="linearGradient3502"><stop id="stop3504" offset="0" stop-color="#6c5d53" stop-opacity="1"/><stop id="stop3506" offset="1" stop-color="#6c5d53" stop-opacity="0"/></linearGradient><linearGradient id="linearGradient3293"><stop id="stop3295" offset="0" stop-color="#ff370d" stop-opacity="1"/><stop id="stop3297" offset="1" stop-color="#ff370d" stop-opacity="0"/></linearGradient><linearGradient id="linearGradient3613"><stop id="stop3615" offset="0" stop-color="#2b83ff" stop-opacity="1"/><stop id="stop3617" offset="1" stop-color="#2b83ff" stop-opacity="0"/></linearGradient><linearGradient id="linearGradient3481"><stop id="stop3483" offset="0" stop-color="#2b83ff" stop-opacity="1"/><stop id="stop3485" offset="1" stop-color="#2b83ff" stop-opacity="0"/></linearGradient><linearGradient id="linearGradient2209" x1="9.33" x2="17.996" y1="15.3" y2="15.3" gradientTransform="matrix(9.5418858,0,0,9.5735368,-0.2445693,-41.448847)" gradientUnits="userSpaceOnUse" xlink:href="#linearGradient5244"/><linearGradient id="linearGradient3551"><stop id="stop3553" offset="0" stop-color="#000" stop-opacity="1"/><stop id="stop3555" offset="1" stop-color="#000" stop-opacity="0"/></linearGradient><linearGradient id="linearGradient3541"><stop id="stop3543" offset="0" stop-color="#fff" stop-opacity="1"/><stop id="stop3545" offset="1" stop-color="#fff" stop-opacity="0"/></linearGradient><linearGradient id="linearGradient3513"><stop id="stop3515" offset="0" stop-color="#fff" stop-opacity="1"/><stop id="stop3517" offset="1" stop-color="#fff" stop-opacity="0"/></linearGradient><linearGradient id="linearGradient5244"><stop id="stop5246" offset="0" stop-color="#500" stop-opacity="1"/><stop id="stop5248" offset="1" stop-color="#500" stop-opacity="0"/></linearGradient><linearGradient id="linearGradient3312"><stop id="stop3314" offset="0" stop-color="#786721" stop-opacity="1"/><stop id="stop3316" offset="1" stop-color="#a0892c" stop-opacity="0"/></linearGradient><linearGradient id="linearGradient3256"><stop id="stop3258" offset="0" stop-color="#806600" stop-opacity="1"/><stop id="stop3274" offset=".5" stop-color="#806600" stop-opacity=".498"/><stop id="stop3276" offset=".75" stop-color="#806600" stop-opacity=".247"/><stop id="stop3260" offset="1" stop-color="#806600" stop-opacity="0"/></linearGradient><linearGradient id="linearGradient3224"><stop id="stop3236" offset="0" stop-color="#fe8dc0" stop-opacity=".122"/><stop id="stop3228" offset="1" stop-color="#005e5f" stop-opacity="0"/></linearGradient><linearGradient id="linearGradient3325" x1="15.592" x2="29.094" y1="16" y2="16" gradientTransform="matrix(-5.4581085,-7.8526237,-7.8266621,5.4762133,340.09049,166.46714)" gradientUnits="userSpaceOnUse" xlink:href="#linearGradient3312"/><linearGradient id="linearGradient3329" x1="15.592" x2="29.094" y1="16" y2="16" gradientTransform="matrix(5.4581085,7.8526237,-7.8266621,5.4762133,163.93143,-86.89372)" gradientUnits="userSpaceOnUse" xlink:href="#linearGradient3312"/><linearGradient id="linearGradient5250" x1="9.33" x2="17.996" y1="15.3" y2="15.3" gradientTransform="matrix(9.5418858,0,0,9.5735368,-0.2445693,-41.448847)" gradientUnits="userSpaceOnUse" xlink:href="#linearGradient5244"/><radialGradient id="radialGradient3519" cx="107.271" cy="65.403" r="19.951" fx="107.271" fy="65.403" gradientTransform="matrix(1,0,0,0.878577,-8.1410809,6.0258725)" gradientUnits="userSpaceOnUse" xlink:href="#linearGradient3513"/><radialGradient id="radialGradient3547" cx="173.089" cy="149.664" r="71.726" fx="173.089" fy="149.664" gradientTransform="matrix(1,0,0,0.6877549,0,46.731982)" gradientUnits="userSpaceOnUse" xlink:href="#linearGradient3541"/><linearGradient id="linearGradient3557" x1="123.675" x2="113.765" y1="184.432" y2="222.264" gradientUnits="userSpaceOnUse" xlink:href="#linearGradient3551"/><radialGradient id="radialGradient3577" cx="107.271" cy="65.403" r="19.951" fx="107.271" fy="65.403" gradientTransform="matrix(1,0,0,0.878577,-8.1410809,6.0258725)" gradientUnits="userSpaceOnUse" xlink:href="#linearGradient3513"/><radialGradient id="radialGradient3579" cx="173.089" cy="149.664" r="71.726" fx="173.089" fy="149.664" gradientTransform="matrix(1,0,0,0.6877549,0,46.731982)" gradientUnits="userSpaceOnUse" xlink:href="#linearGradient3541"/><linearGradient id="linearGradient3581" x1="123.675" x2="113.765" y1="184.432" y2="222.264" gradientUnits="userSpaceOnUse" xlink:href="#linearGradient3551"/><linearGradient id="linearGradient3749" x1="9.33" x2="17.996" y1="15.3" y2="15.3" gradientTransform="matrix(9.5418858,0,0,9.5735368,-0.2445693,-41.448847)" gradientUnits="userSpaceOnUse" xlink:href="#linearGradient5244"/><linearGradient id="linearGradient3759" x1="9.33" x2="17.996" y1="15.3" y2="15.3" gradientTransform="matrix(6.9183911,-0.6804129,0.6420938,7.3799858,60.662073,-20.81452)" gradientUnits="userSpaceOnUse" xlink:href="#linearGradient5244"/><linearGradient id="linearGradient3781" x1="9.33" x2="17.996" y1="15.3" y2="15.3" gradientTransform="matrix(7.6981053,0,0,7.5253696,-204.77612,-47.220728)" gradientUnits="userSpaceOnUse" xlink:href="#linearGradient5244"/><linearGradient id="linearGradient3796" x1="9.33" x2="17.996" y1="15.3" y2="15.3" gradientTransform="matrix(7.6981053,0,0,7.5253696,-204.77612,-47.220728)" gradientUnits="userSpaceOnUse" xlink:href="#linearGradient5244"/><linearGradient id="linearGradient3799" x1="123.675" x2="113.765" y1="184.432" y2="222.264" gradientTransform="translate(-31.127663,12.451065)" gradientUnits="userSpaceOnUse" xlink:href="#linearGradient3551"/><radialGradient id="radialGradient3802" cx="173.089" cy="149.664" r="71.726" fx="173.089" fy="149.664" gradientTransform="matrix(1,0,0,0.6877549,-31.127663,59.183047)" gradientUnits="userSpaceOnUse" xlink:href="#linearGradient3541"/><radialGradient id="radialGradient3805" cx="107.271" cy="65.403" r="19.951" fx="107.271" fy="65.403" gradientTransform="matrix(1,0,0,0.878577,-36.634864,17.519163)" gradientUnits="userSpaceOnUse" xlink:href="#linearGradient3513"/><radialGradient id="radialGradient3828" cx="173.089" cy="149.664" r="71.726" fx="173.089" fy="149.664" gradientTransform="matrix(1,0,0,0.6877549,-31.127663,59.183047)" gradientUnits="userSpaceOnUse" xlink:href="#linearGradient3541"/><linearGradient id="linearGradient3830" x1="123.675" x2="113.765" y1="184.432" y2="222.264" gradientTransform="translate(-31.127663,12.451065)" gradientUnits="userSpaceOnUse" xlink:href="#linearGradient3551"/><radialGradient id="radialGradient3832" cx="107.271" cy="65.403" r="19.951" fx="107.271" fy="65.403" gradientTransform="matrix(1,0,0,0.878577,-36.634864,17.519163)" gradientUnits="userSpaceOnUse" xlink:href="#linearGradient3513"/><linearGradient id="linearGradient3841" x1="9.33" x2="17.996" y1="15.3" y2="15.3" gradientTransform="matrix(9.5418858,0,0,9.5735368,-0.2445693,-41.448847)" gradientUnits="userSpaceOnUse" xlink:href="#linearGradient5244"/><linearGradient id="linearGradient3487" x1="14.055" x2="219.642" y1="119.912" y2="119.912" gradientUnits="userSpaceOnUse" xlink:href="#linearGradient3481"/><linearGradient id="linearGradient3489" x1="14.055" x2="219.642" y1="119.912" y2="119.912" gradientUnits="userSpaceOnUse" xlink:href="#linearGradient3481"/><linearGradient id="linearGradient3491" x1="14.055" x2="219.642" y1="119.912" y2="119.912" gradientUnits="userSpaceOnUse" xlink:href="#linearGradient3481"/><linearGradient id="linearGradient3493" x1="14.055" x2="219.642" y1="119.912" y2="119.912" gradientUnits="userSpaceOnUse" xlink:href="#linearGradient3481"/><linearGradient id="linearGradient3495" x1="14.055" x2="219.642" y1="119.912" y2="119.912" gradientUnits="userSpaceOnUse" xlink:href="#linearGradient3481"/><linearGradient id="linearGradient3497" x1="11.182" x2="242.628" y1="232.929" y2="-19.923" gradientUnits="userSpaceOnUse" xlink:href="#linearGradient3481"/><linearGradient id="linearGradient3499" x1="14.055" x2="219.642" y1="119.912" y2="119.912" gradientUnits="userSpaceOnUse" xlink:href="#linearGradient3481"/><linearGradient id="linearGradient3501" x1="14.055" x2="219.642" y1="119.912" y2="119.912" gradientUnits="userSpaceOnUse" xlink:href="#linearGradient3481"/><linearGradient id="linearGradient3503" x1="14.055" x2="219.642" y1="119.912" y2="119.912" gradientUnits="userSpaceOnUse" xlink:href="#linearGradient3481"/><linearGradient id="linearGradient3505" x1="14.055" x2="219.642" y1="119.912" y2="119.912" gradientUnits="userSpaceOnUse" xlink:href="#linearGradient3481"/><linearGradient id="linearGradient3523" x1="9.33" x2="17.996" y1="15.3" y2="15.3" gradientTransform="matrix(9.5418858,0,0,9.5735368,-244.70976,-46.136545)" gradientUnits="userSpaceOnUse" xlink:href="#linearGradient5244"/><linearGradient id="linearGradient3564" x1="14.055" x2="219.642" y1="119.912" y2="119.912" gradientUnits="userSpaceOnUse" xlink:href="#linearGradient3481"/><linearGradient id="linearGradient3576" x1="14.055" x2="219.642" y1="119.912" y2="119.912" gradientTransform="translate(0.9577801,3.1266834)" gradientUnits="userSpaceOnUse" xlink:href="#linearGradient3481"/><linearGradient id="linearGradient3579" x1="14.055" x2="219.642" y1="119.912" y2="119.912" gradientTransform="translate(4.9577801,3.1266834)" gradientUnits="userSpaceOnUse" xlink:href="#linearGradient3481"/><linearGradient id="linearGradient3582" x1="14.055" x2="219.642" y1="119.912" y2="119.912" gradientTransform="translate(8.9577801,3.1266834)" gradientUnits="userSpaceOnUse" xlink:href="#linearGradient3481"/><linearGradient id="linearGradient3585" x1="14.055" x2="219.642" y1="119.912" y2="119.912" gradientTransform="translate(0.9577801,-0.8733166)" gradientUnits="userSpaceOnUse" xlink:href="#linearGradient3481"/><linearGradient id="linearGradient3588" x1="11.182" x2="242.628" y1="232.929" y2="-19.923" gradientTransform="translate(4.9577801,-0.8733166)" gradientUnits="userSpaceOnUse" xlink:href="#linearGradient3481"/><linearGradient id="linearGradient3591" x1="14.055" x2="219.642" y1="119.912" y2="119.912" gradientTransform="translate(12.788876,0.8733288)" gradientUnits="userSpaceOnUse" xlink:href="#linearGradient3481"/><linearGradient id="linearGradient3594" x1="14.055" x2="219.642" y1="119.912" y2="119.912" gradientTransform="translate(0.9577801,-4.8733166)" gradientUnits="userSpaceOnUse" xlink:href="#linearGradient3481"/><linearGradient id="linearGradient3597" x1="14.055" x2="219.642" y1="119.912" y2="119.912" gradientTransform="translate(9.7466509,-3.8310908)" gradientUnits="userSpaceOnUse" xlink:href="#linearGradient3481"/><linearGradient id="linearGradient3600" x1="14.055" x2="219.642" y1="119.912" y2="119.912" gradientTransform="translate(4.1689089,8.8733288)" gradientUnits="userSpaceOnUse" xlink:href="#linearGradient3481"/><linearGradient id="linearGradient3619" x1="15.013" x2="223.811" y1="125.912" y2="125.912" gradientUnits="userSpaceOnUse" xlink:href="#linearGradient3613"/><linearGradient id="linearGradient3621" x1="15.013" x2="223.811" y1="125.912" y2="125.912" gradientUnits="userSpaceOnUse" xlink:href="#linearGradient3613"/><linearGradient id="linearGradient3623" x1="15.013" x2="223.811" y1="125.912" y2="125.912" gradientUnits="userSpaceOnUse" xlink:href="#linearGradient3613"/><linearGradient id="linearGradient3625" x1="15.013" x2="223.811" y1="125.912" y2="125.912" gradientUnits="userSpaceOnUse" xlink:href="#linearGradient3613"/><linearGradient id="linearGradient3627" x1="15.013" x2="223.811" y1="125.912" y2="125.912" gradientUnits="userSpaceOnUse" xlink:href="#linearGradient3613"/><linearGradient id="linearGradient3629" x1="15.013" x2="223.811" y1="125.912" y2="125.912" gradientUnits="userSpaceOnUse" xlink:href="#linearGradient3613"/><linearGradient id="linearGradient3631" x1="15.013" x2="223.811" y1="125.912" y2="125.912" gradientUnits="userSpaceOnUse" xlink:href="#linearGradient3613"/><linearGradient id="linearGradient3633" x1="15.013" x2="223.811" y1="125.912" y2="125.912" gradientUnits="userSpaceOnUse" xlink:href="#linearGradient3613"/><linearGradient id="linearGradient3635" x1="15.013" x2="223.811" y1="125.912" y2="125.912" gradientUnits="userSpaceOnUse" xlink:href="#linearGradient3613"/><linearGradient id="linearGradient3637" x1="15.013" x2="223.811" y1="125.912" y2="125.912" gradientUnits="userSpaceOnUse" xlink:href="#linearGradient3613"/><linearGradient id="linearGradient3299" x1="-116.13" x2="-118.764" y1="304.846" y2="260.31" gradientTransform="matrix(1.2057038,0,0,1.1859694,166.69263,-281.72947)" gradientUnits="userSpaceOnUse" xlink:href="#linearGradient3293"/><radialGradient id="radialGradient3510" cx="104.887" cy="127.972" r="72.103" fx="104.887" fy="127.972" gradientTransform="matrix(1,0,0,0.9502848,0,7.6766561)" gradientUnits="userSpaceOnUse" xlink:href="#linearGradient3502"/><radialGradient id="radialGradient3522" cx="134.095" cy="112.426" r="72.103" fx="134.095" fy="112.426" gradientTransform="matrix(1,0,0,0.9502848,0,7.6766561)" gradientUnits="userSpaceOnUse" xlink:href="#linearGradient3516"/><radialGradient id="radialGradient3534" cx="134.095" cy="154.413" r="72.103" fx="134.095" fy="154.413" gradientTransform="matrix(1,0,0,0.9502848,0,7.6766561)" gradientUnits="userSpaceOnUse" xlink:href="#linearGradient3528"/></defs><path id="path3524" fill="url(#radialGradient3534)" fill-opacity="1" stroke="none" stroke-dasharray="none" stroke-miterlimit="4" stroke-opacity="1" stroke-width="3" d="M 206.19815 154.4127 A 72.102921 68.518311 0 1 1 61.99231,154.4127 A 72.102921 68.518311 0 1 1 206.19815 154.4127 z" opacity="1" transform="matrix(1.2057038,0,0,1.1859694,-64.587086,-78.67637)"/><path id="path2300" fill="gray" fill-opacity="1" stroke="#000" stroke-dasharray="none" stroke-miterlimit="4" stroke-opacity="1" stroke-width="2.509" d="M 208.59258 154.4127 A 74.497353 70.433861 0 1 1 59.597878,154.4127 A 74.497353 70.433861 0 1 1 208.59258 154.4127 z" opacity="1" transform="matrix(1.2057038,0,0,1.1859694,-23.985195,-20.647286)"/><path id="path2312" fill="url(#radialGradient3510)" fill-opacity="1" stroke="none" stroke-dasharray="none" stroke-miterlimit="4" stroke-opacity="1" stroke-width="3" d="M 206.19815 154.4127 A 72.102921 68.518311 0 1 1 61.99231,154.4127 A 72.102921 68.518311 0 1 1 206.19815 154.4127 z" opacity="1" transform="matrix(1.2057038,0,0,1.1859694,-24.290636,-20.686464)"/><path id="path3512" fill="url(#radialGradient3522)" fill-opacity="1" stroke="none" stroke-dasharray="none" stroke-miterlimit="4" stroke-opacity="1" stroke-width="3" d="M 206.19815 154.4127 A 72.102921 68.518311 0 1 1 61.99231,154.4127 A 72.102921 68.518311 0 1 1 206.19815 154.4127 z" opacity="1" transform="matrix(0.8536929,0,0,1.0322073,26.241348,-8.9005827)"/><g id="g3515" transform="translate(297.78569,1.727863)"><path id="path3282" fill="#000" fill-rule="evenodd" stroke="none" stroke-linecap="butt" stroke-linejoin="miter" stroke-opacity="1" stroke-width="1" d="M -142.414,138.42015 L -148.51678,134.29733 L -178.71795,184.78001 C -192.65326,177.46033 -208.28991,178.38537 -216.26901,187.43907 L -159.09067,222.6551 C -154.58833,212.1501 -160.02646,198.06726 -172.34758,188.66449 L -142.414,138.42015 z"/><path id="path5258" fill="#000" fill-opacity="1" stroke="#000200" stroke-dasharray="none" stroke-miterlimit="4" stroke-opacity="1" stroke-width="6.681" d="M -89.745759,15.584763 C -100.79208,23.676173 -112.25093,36.524491 -121.44369,52.580988 C -141.11357,86.937219 -143.42816,123.04724 -127.19101,133.19408 C -110.95387,143.34091 -82.003699,123.87584 -62.333849,89.519613 C -53.141069,73.463117 -47.725669,56.838167 -46.126769,42.84292 L -89.745759,15.584763 z" opacity=".22"/><path id="path5260" fill="#000" fill-rule="evenodd" stroke="none" stroke-linecap="butt" stroke-linejoin="miter" stroke-opacity="1" stroke-width="1" d="M -126.85496,140.27772 L -133.63499,136.49352 L -161.46579,183.58996 C -175.4011,176.27029 -191.03775,177.19531 -199.01685,186.24902 L -141.83851,221.46505 C -137.33617,210.96006 -142.7743,196.87721 -155.09543,187.47445 L -126.85496,140.27772 z" opacity=".22"/><path id="path3403" fill="#fff" fill-opacity="1" stroke="#000200" stroke-dasharray="none" stroke-miterlimit="4" stroke-opacity="1" stroke-width="6.681" d="M -106.99792,16.774799 C -118.04423,24.866213 -129.50309,37.714531 -138.69585,53.771029 C -158.36573,88.127267 -160.68032,124.23729 -144.44317,134.38413 C -128.20603,144.53096 -99.255859,125.06589 -79.586009,90.709666 C -70.393229,74.653165 -64.977829,58.028211 -63.378929,44.032962 L -106.99792,16.774799 z"/><path id="path3408" fill="#b40000" fill-opacity="1" stroke="none" stroke-miterlimit="4" stroke-opacity="1" stroke-width=".699" d="M -75.363306,77.106496 C -75.363306,77.106496 -82.038713,69.171129 -95.807823,69.207174 C -109.57692,69.243228 -117.78822,80.173813 -126.71486,78.60517 C -135.64147,77.036546 -143.12613,70.241322 -143.12613,70.241322 C -148.9286,84.031378 -152.63002,98.649241 -152.35897,108.26331 C -152.08793,117.87737 -149.53755,127.567 -142.1592,132.17784 C -125.92208,142.32467 -106.94341,120.81491 -101.00573,115.2547 C -94.877477,109.51602 -77.508786,82.179312 -75.363306,77.106496 z"/><path id="path4273" fill="url(#linearGradient3523)" fill-opacity="1" stroke="#000" stroke-miterlimit="4" stroke-opacity="1" stroke-width="6.681" d="M -72.65234,76.418653 C -72.65234,76.418653 -81.359494,66.451544 -95.128604,66.487584 C -108.89772,66.523644 -119.14077,77.454224 -128.0674,75.885584 C -136.99402,74.316964 -142.9493,63.796884 -142.9493,63.796884 C -157.94049,95.101854 -159.96156,124.97731 -145.20485,134.19898 C -128.96774,144.34581 -100.01755,126.9125 -80.347694,92.556284 C -77.450694,87.496274 -74.79782,81.491473 -72.65234,76.418653 z"/></g><path id="path3317" fill="gray" fill-opacity="1" stroke="#000" stroke-miterlimit="4" stroke-opacity="1" stroke-width="2" d="M 109.79911,104.11943 C 97.667025,111.26705 82.756435,113.60832 76.516549,109.34546 C 73.396605,107.21404 67.95279,99.769661 69.884835,96.028182 C 71.816879,92.286703 81.124785,92.248121 87.190832,88.674309 C 93.256876,85.100498 106.79003,76.633036 112.81417,75.687125 C 118.83832,74.741214 119.72382,79.623729 120.4734,83.448277 C 121.92684,90.864179 121.9312,96.971807 109.79911,104.11943 z"/><path id="path3319" fill="#b3b3b3" fill-opacity="1" stroke="#000" stroke-dasharray="none" stroke-miterlimit="4" stroke-opacity="1" stroke-width="5.749" d="M -42.142067 161.18036 A 37.353195 69.917519 0 1 1 -116.84846,161.18036 A 37.353195 69.917519 0 1 1 -42.142067 161.18036 z" opacity="1" transform="matrix(0.3026285,0.2067443,-0.3143479,0.1851981,169.07425,74.182377)"/><path id="path3447" fill="#666" fill-opacity="1" stroke="#000" stroke-miterlimit="4" stroke-opacity="1" stroke-width="2" d="M 97.117265,87.846213 C 90.38498,91.478983 82.11086,92.668923 78.64825,90.502333 C 76.91695,89.419043 73.896092,85.635453 74.968213,83.733843 C 76.04033,81.832243 81.20543,81.812633 84.57158,79.996253 C 87.93772,78.179873 95.447475,73.876293 98.790365,73.395533 C 102.13325,72.914773 102.62463,75.396313 103.04058,77.340133 C 103.84712,81.109253 103.84954,84.213443 97.117265,87.846213 z"/><path id="path3449" fill="#999" fill-opacity="1" stroke="#000" stroke-dasharray="none" stroke-miterlimit="4" stroke-opacity="1" stroke-width="10.825" d="M -42.142067 161.18036 A 37.353195 69.917519 0 1 1 -116.84846,161.18036 A 37.353195 69.917519 0 1 1 -42.142067 161.18036 z" opacity="1" transform="matrix(0.1679332,0.1050775,-0.1744364,9.4126669e-2,130.00993,72.630743)"/><path id="path3311" fill="none" fill-rule="evenodd" stroke="#000" stroke-dasharray="none" stroke-linecap="butt" stroke-linejoin="miter" stroke-miterlimit="4" stroke-opacity="1" stroke-width="5" d="M 88.172103,80.309949 C 88.172103,80.309949 80.823043,53.001279 70.207753,54.607671 C 59.592457,56.214063 57.551056,80.510748 45.710917,81.916341 C 33.870779,83.321934 22.8472,60.230045 22.8472,60.230045"/><path id="path2309" fill="#ffff0d" fill-opacity="1" stroke="#000" stroke-miterlimit="4" stroke-opacity="1" stroke-width="3" d="M 11.72385,48.004192 C 11.72385,56.46885 19.96445,66.178447 24.42657,66.178447 C 28.888673,66.178447 35.397086,56.46885 35.397086,48.004192 C 35.397086,39.539533 27.733886,18.47103 23.27178,18.47103 C 18.80967,18.47103 11.72385,39.539533 11.72385,48.004192 z"/><path id="path3291" fill="url(#linearGradient3299)" fill-opacity="1" stroke="none" stroke-miterlimit="4" stroke-opacity="1" stroke-width="3" d="M 11.66179,45.732414 C 11.66179,54.197069 19.90239,63.906671 24.36451,63.906671 C 28.826615,63.906671 35.335028,54.197069 35.335028,45.732414 C 35.335028,37.267747 27.671828,16.19925 23.20972,16.19925 C 18.74761,16.19925 11.66179,37.267747 11.66179,45.732414 z"/></svg>